<svg width="24" height="32" xmlns="http://www.w3.org/2000/svg"><g fill="none" fill-rule="evenodd"><path d="M10.65 0s-.019.303-.063.48c-.041.162-.153.274-.145.384.007.11.08.238.19.328.11.092.155.162.267.206.104.042.236.165.274.025.039-.14-.02-.314-.083-.48-.11-.287-.165-.357-.328-.754-.035-.085-.063-.177-.112-.189" fill="#FFF"/><path d="M10.107 19.855c.01-.03.277.135.414.217.29.173.42.274.677.468.202.153.3.232.504.408.25.215.385.399.452.355.097-.116-.16-.457-.386-.642-.22-.18-.449-.329-.626-.445-.226-.15-.246-.185-.586-.412-.364-.244-.679-.549-.679-.549l-.354-.278-.555-.468-.616-.568-.467-.517s-.362-.442-.42-.527a20.748 20.748 0 01-.369-.59 7.91 7.91 0 00-.393-.559c-.132-.158-.433-.094-.782-.3-.425-.25-.527-.478-.527-.478l-.032-.052-.049-.04-.22-.156-.128-.084s-.098-.08-.219-.132c-.122-.053-.394-.211-.394-.211l-.485-.309-.254-.203c-.063-.05-.184-.119-.184-.119l-.099-.04-.124-.01s-.093-.024-.189.088c-.095.11-.072.052.083.681.06.249.055 1.125.12 1.39.086.343.325.785.35.837.025.052.041.243.041.243s-.01.155.006.253c.074.451.736.154.883.775.144.61-.086 1.222-.086 1.222s-.143.303-.344.35c-.201.048-.512-.395-.738-.755-.222-.353-.405-.817-.463-.964-.058-.147-.088-.18-.156-.287-.1-.158-.18-.13-.291-.38-.111-.251-.013-.353-.063-.57-.029-.123-.056-.135-.093-.308-.038-.173-.087-.723-.087-.723l-.07-.512s-.025-.233-.057-.379a8.369 8.369 0 01-.15-1.006l-.02-.203-.01-.21s-.006-.101.019-.204c.025-.104.076-.19.076-.19s.103-.174.12-.216c.018-.041.23-.287.23-.287s.11-.09.29-.202c.18-.11.344-.102.344-.102s.047-.005.367.035c.321.04.98.214 1.146.258.165.043.36.112.489.182.366.2.477.115.185-.112-.196-.154-.252-.222-.41-.367-.132-.121-.238-.203-.337-.316-.1-.114-.384-.533-.384-.533l-.177-.262-.11-.114-.065-.046s-.117.007-.239-.017c-.121-.024-.179.147-.179.147s-.264.491-.531.792c-.434.488-.745.82-.905 1.08-.223.36-.175.754-.29.936-.068.108-.104.123-.141.217-.113.283.296.44.203.753-.149.497-1.318.99-1.473.907-.16-.085-.03-.757.025-.976.055-.218.219-.54.234-.557a.446.446 0 00.066-.157c.013-.064.017-.21.025-.29.008-.082.041-.21.041-.21s.005-.027.108-.252c.103-.224.484-.748.757-1.247.179-.326.254-.523.434-.849.166-.3.45-.756.45-.756s.12-.234.176-.321c.056-.088.176-.258.288-.422.113-.166.141-.29.289-.426a.873.873 0 01.364-.226c.239-.077.4-.035.643.031a1.5 1.5 0 01.59.321c.163.137.285.29.285.29l.08.116.049.03.154.097.35.232.874.593c.046.03.193.152.224.161.03.01.25-.23.684-.528.502-.347.68-.32.845-.41.165-.091.233-.166.361-.295.195-.195.196-.298.417-.57.221-.271.43-.422.43-.422s.03-.031.427-.477c.396-.445.57-.783.57-.783l.219-.434s.314-.675.415-.941c.101-.268.101-.358.101-.358s.015-.07-.062-.205c-.078-.136-.16-.074-.309-.043-.289.061-.464-.014-.755-.064-.267-.045-.406-.124-.673-.17-.27-.045-.43-.089-.7-.063a.999.999 0 00-.166.035c-.152.051-.195.063-.308.128a.78.78 0 01-.365.085c-.1.003-.163.005-.257-.03a.424.424 0 01-.222-.17c-.003-.03-.012-.028.015-.074.027-.047.063-.055.063-.055l.124-.03.19-.051.256-.082c.074-.023.156-.066.156-.066s.045-.07.027-.112c-.02-.046-.12-.05-.12-.05l-.156.054-.237.074s-.174.038-.31.07c-.136.03-.33.046-.33.046l-.059-.016s-.067-.044-.077-.09a1.893 1.893 0 01-.024-.119c-.028-.172-.063-.276-.023-.446a.793.793 0 01.064-.175.93.93 0 01.076-.139L7 3.527l.202-.299a.771.771 0 01.202-.153.804.804 0 01.365-.11c.159-.018.18-.016.404-.066.226-.05.385-.14.385-.14s.537-.197.865-.358c.344-.167.495-.348.851-.487.15-.058.236-.086.392-.125l.035-.047c.016-.057-.073-.084-.132-.077-.053.005-.175.06-.203 0-.022-.047.112-.074.112-.074s.063-.03.064-.066c.002-.052-.091-.018-.132-.023-.208-.023-.225-.06-.37-.096-.17-.042-.262-.095-.438-.102a1.465 1.465 0 00-.4.051c-.097.023-.1-.071-.062-.09.273-.127.28-.138.472-.146.106-.004.254.019.27.026.016.008.227-.002.281-.057.055-.054-.174-.05-.281-.093-.099-.04-.251-.05-.247-.116.003-.066.078-.03.13-.043.065-.016.104-.014.171-.023.121-.018.132-.028.31-.044.18-.015.436.059.436.059s.268.12.4.182c.131.062.29.093.29.093s.188.027.331-.062c.144-.09.063-.147.011-.228-.049-.078-.111-.186-.018-.396.08-.184.123-.395.147-.415.028-.023.142.14.215.208.262.244.611.366.937.878.026.041.15-.024.53.034.38.059.71.465.796.562.085.097.198.093.198.093l.182.023.664.012s.301-.053.474.012c.122.045.527.315.342.418-.128.072-.25-.086-.367-.094-.137-.01-.198.017-.32.048-.257.064-.81.231-.61.299l.042.011.102.015s.242.056.388.114c.222.088.325.184.531.304.116.067.168.135.295.172.116.034.192 0 .311.02.158.028.246.06.39.129.212.103.291.227.483.364.096.07.176.08.248.173l.037.057c.026.085-.14.035-.229.02-.096-.016-.139-.064-.227-.105-.133-.062-.197-.132-.34-.158-.107-.02-.17-.003-.277.001-.103.005-.16.022-.264.023a1.795 1.795 0 01-.454-.05c-.197-.04-.294-.117-.49-.157-.219-.046-.61-.233-.57-.046.018.09.226.167.226.167s.14.077.276.135c.135.059.21.148.21.148l.092.07s.098.131.222.279c.124.147.342.143.342.143s.132 0 .415.058c.284.058.575.232.575.232s.221.152.35.303c.128.151.054.229.038.244l-.027.016-.175-.19-.112-.097s-.113-.078-.257-.124c-.143-.047-.19-.016-.19-.016s-.307.085-.57.078c-.265-.008-.405-.113-.405-.113l-.167-.112s-.252-.236-.26-.124c-.006.075.11.16.11.16l.136.133c.101.099.142.149.26.254.116.104.19.104.19.104l.085.02.066.015.221.09c.183.072.377.232.377.232l.046.019.098.035c.015.004.062.004.167.02.104.015.066.08.066.08l-.02.028-.085.058s-.113.031-.19.035c-.078.004-.187-.039-.187-.039l-.237-.09s-.237-.061-.287-.069c-.05-.008-.264-.05-.3-.058a1.116 1.116 0 01-.17-.062c-.027-.015-.082-.027-.21-.09-.128-.062-.179-.135-.338-.185-.16-.05-.256-.061-.377.022-.205.143.312.166.57.293.38.187.594.325.685.527.09.202.183.276.183.276s.267.134.387.275c.066.076.075.14.14.216.147.17.433.162.489.308.054.136-.23.075-.379.06-.266-.025-.33-.269-.579-.367-.141-.056-.231-.057-.375-.105-.261-.087-.384-.2-.647-.28-.158-.049-.446-.258-.412-.097.009.039.032.07.043.092l.078.11s.09.116.128.147c.039.03.21.159.45.29.242.132.451.384.451.384s.072.102.105.175c.036.08.012.104.066.216.055.113.081.133.152.202.175.171.36.137.586.229.06.025.066.035.132.105.066.07-.012.1-.012.1s-.25.063-.411.05c-.21-.017-.303-.08-.509-.182-.206-.1-.315-.283-.334-.294-.02-.011-.07-.066-.11-.093-.038-.028-.138-.049-.228-.074-.09-.025-.143-.029-.233-.054-.124-.035-.252-.09-.311-.109-.058-.019-.192-.043-.29.014-.195.116.302.194.457.358.08.084.112.142.187.23.057.066.08.114.151.165a.887.887 0 00.136.074s.12.055.295.152c.175.096.38.368.38.368l.125.19.074.108.02.05.027.063s.089.116.155.155c.066.038.054.074.054.074s-.008.023-.054.05c-.047.027-.07.004-.136-.016s-.109-.081-.167-.128c-.058-.046-.121-.163-.23-.228-.093-.057-.217-.078-.263-.093-.047-.016-.163-.09-.21-.109l-.167-.074s-.234-.13-.362-.166c-.128-.035-.046.043-.046.043s.116.179.226.252c.144.095.345.179.279.255-.044.051-.104.033-.171.025-.107-.013-.237-.141-.237-.141s-.054-.035-.295-.112c-.24-.078-.151.054-.097.124.055.07.129.108.129.108l.163.074.073.023s.066.011.284.062c.217.05.338.155.338.155s.116.109.28.229c.162.12.325.151.415.163.09.01.085.073.085.073l.008.078-.043.035-.05.019-.116.027s-.245-.008-.436-.054c-.19-.047-.357-.178-.373-.186-.015-.008-.194-.105-.314-.144a.83.83 0 00-.33-.015c-.02.007-.085.02-.198.05-.113.031.027.074.027.074l.081.008.195.015s.198.023.369.086c.17.062.28.186.391.298.113.112.238.186.238.186l.09.058.046.035.011.031-.011.035-.035.035-.062-.008c-.02 0-.147-.067-.241-.109-.098-.043-.149-.082-.253-.108a.772.772 0 00-.236-.023 4.177 4.177 0 01-.377.046 2.226 2.226 0 01-.464-.008c-.257-.031-.597-.233-.64-.176-.09.117.183.152.313.227.18.103.492.197.492.197s.227.05.36.113c.292.135.381.335.614.546.131.119.234.169.408.194.15.022.148.004.385-.042.236-.047.382-.272.45-.19l.004.054-.023.066s-.028.039-.07.081a1.333 1.333 0 01-.291.167 1.475 1.475 0 01-.56.085c-.264-.008-.633-.21-.633-.21l-.268-.112s-.124-.058-.206-.089c-.22-.083-.361-.075-.59-.135-.142-.038-.233-.078-.361-.105-.128-.027-.057.024-.043.043.06.08.14.106.241.154.135.066.23.053.369.11.153.063.287.15.373.205.085.054.147.115.229.201l.284.24.074.078c.007.023.038.081.023.175-.016.092-.093.027-.093.027l-.074-.047-.074-.07-.12-.097s-.102-.093-.276-.182a1.288 1.288 0 00-.385-.112s-.186-.027-.178.03c.007.06.05.063.198.102a.756.756 0 01.244.112s.152.113.26.237c.11.123.14.244.14.244s.055.1.194.236c.14.136.214.09.206.155-.008.066-.07.078-.07.078l-.05-.004c-.015 0-.05-.02-.09-.035-.038-.015-.186-.116-.186-.116l-.256-.206-.245-.182s-.128-.082-.221-.128a2.437 2.437 0 00-.287-.116 1.038 1.038 0 00-.199-.031s-.155-.023-.248-.058c-.148-.057-.321-.215-.34-.222l-.187-.05c-.027.003-.088.263-.103.413-.063.629.105 1.046.364 1.623.377.839 1.423 1.881 1.423 1.881s.262.15.375.237c.312.246.83.59 1.29 1.049.392.391.915 1.087.915 1.087s.3.42.44.718c.173.365.31.92.31.92l.022.117.057.044.182.007c.02 0 .226-.016.363-.05.138-.033.462-.181.675-.294.214-.113.47-.33.47-.33s.048-.04.3-.318c.25-.278.412-.695.472-.853.06-.157.11-.457.147-.972.037-.515-.033-1.06-.033-1.06s-.094-.76-.151-1.017c-.057-.258-.194-.678-.194-.678s-.096-.376-.127-.613c-.03-.238-.035-.622-.035-.622s0-.237.077-.672c.077-.436.346-.873.346-.873s.075-.147.362-.491c.295-.351.389-.408.68-.617.23-.165.529-.43.626-.369.106.068-.106.203-.177.273-.18.178-.52.496-.796.972-.238.414-.327.687-.387.957-.06.27-.035.565-.027.666.008.101.064.064.064.064s.583-.467.9-.82c.342-.382.647-1.064.766-1.07.08-.004.118.178.1.262-.076.354-.101.398-.216.631-.132.271-.254.39-.437.637-.193.261-.286.361-.441.705-.223.496-.093.878-.093.878s.027.233.132.23c.176-.006.56-.491.811-.887.186-.292.254-.628.376-.804.11-.157.207.254.16.497-.055.287-.198.545-.51.951-.308.399-.296.777-.296.777s-.034.173-.058.549c-.025.375.083.945.083.945s.097.476.115.837c.018.361.006 1.187-.332 1.828a4.822 4.822 0 01-.426.613s-.222.229-.405.362c-.184.134-.622.34-.622.34s-.303.105-.346.115c-.043.01-.072.048-.072.048l.04.083.097.232s.09.298.125.532c.035.234-.005.288-.04.468-.032.172-.108.092-.127.43-.017.298.12.448.095.782-.011.147-.179-.183-.257-.324-.171-.307-.13-.775-.134-.891a1.551 1.551 0 00-.056-.394 1.342 1.342 0 00-.221-.454c-.09-.115-.185-.18-.216-.17l-.035.104.076.165.128.23s.05.156.07.463a2.65 2.65 0 01-.075.685s-.123.427-.253.677c-.144.278-.462.655-.462.655s-.23.209-.4.552c-.171.343-.025.494-.088.537-.065.044-.2-.197-.237-.362-.034-.15-.017-.223.045-.395.059-.163.196-.4.196-.4l.207-.349s.246-.472.323-.815a1.86 1.86 0 00-.009-.721s-.011-.125-.097-.12c-.085.004-.148.08-.182.172-.071.187.03.153-.079.466-.084.247-.108.214-.152.36a1.595 1.595 0 00-.079.464c.005.109-.056.064-.056.064s-.103-.196-.103-.438c0-.13.004-.205.02-.336.023-.211.11-.534.11-.534s.093-.318.072-.61c-.02-.292-.124-.346-.124-.346s-.025-.04-.139-.032c-.112.008-.107.21-.107.21s-.035.287-.08.467c-.124.496-.29.756-.584 1.173a5.232 5.232 0 01-.808.865c-.18.156-.734.56-.734.56l-.649.43s-.257.252-.377.55a1.2 1.2 0 00-.043.805c.068.274.168.401.22.477.052.076.152.21.185.367.02.098.006.156.011.257.005.086.017.134.016.22-.003.138.022.235-.056.349-.058.086-.215.159-.215.159s-.176.078-.28.141c-1.106.667-1.498 1.097-2.12 1.84-.199.236-.054.222-.265.503-.127.168-.423.167-.531.367-.148.273.336.542-.224.784-.72.31-1.96.087-1.985-.01-.068-.267.242-.574.352-.694.505-.552.956-.566 1.121-1.021.035-.097.023-.18.423-.477.283-.21 1.411-1.056 1.904-1.622.168-.194.313-.322.387-.533.073-.21-.074-.344-.074-.344l-.202-.328-.387-.693s-.162-.366-.252-.579c-.09-.212-.26-.784-.26-.784s-.125-.512-.146-.847c-.037-.602.045-.951.203-1.534.206-.758.672-1.074.857-1.823.054-.218.066-.591-.045-.573-.105.017-.113.313-.193.511-.3.744-.697 1.07-.913 1.841-.146.52-.205.83-.204 1.371.001.309-.01.252.07.788.029.2.08.305.138.497.041.137.152.393.152.393s.156.34.208.58c.018.08.038.127.032.21-.01.141.015.172-.054.3-.085.16-.033.254-.306.313-.242.051-.737-.109-.737-.109s-2.037-.617-3.338-.44c-.258.036-.395.129-.655.125-.235-.003-.356-.187-.591-.118-.049.015-.064.048-.106.077-.346.24-.082.638-.989.43-.557-.127-1.233-.466-1.115-.68.156-.285.367-.331.806-.51.471-.193 1.178-.139 1.317-.15.17-.011.415-.13.718-.136.525-.008.62.053.62.053l.892.078 1.708.022s.305-.024.427-.047.22-.264.286-.378c.066-.113-.002-.283-.002-.283l-.052-.079-.161-.26-.3-.507-.334-.662s-.218-.462-.334-.767c-.115-.3-.183-.47-.26-.783a4.102 4.102 0 01-.139-.84c-.013-.37-.036-.66.067-.964" fill="#FDFDFD"/><path d="M21.179 19.203c.366-.487.402-.937.424-1.574.016-.461-.153-1.174-.153-1.174l-.023-.052s-.065-.086-.105.028c.006.101.018.181.018.181l.023.918s-.029.461-.182.939c-.257.802-.94 1.162-1.042 1.45-.168.483.6-.131 1.04-.716M17.571 20.093s-.266.05-.271.23c-.006.179.065.333.06.547-.009.273-.38.592-.14.694.41.177.763-1.067.637-1.252-.125-.184-.246-.222-.286-.219M15.455 28.435s-.083-.043-.247.017c-.164.06-.151.23-.151.23s-.032.18.1.2c.13.018.349-.302.346-.339l-.048-.108M11.933 28.975l-.003.048.057-.006s.46-.374.73-.638c.29-.282.701-.765.701-.765l-.004-.069c-.031-.031-.112.017-.175.05-.058.029-.09.064-.133.101a4.378 4.378 0 00-.177.182l-.355.36-.22.218-.217.217-.092.108-.031.053-.03.043-.032.042-.012.03-.007.026M11.836 29.889s-.09-.073-.228 0c-.139.072-.289.265-.3.287-.012.021-.089.126-.038.216.052.09.23-.044.256-.047l.256-.186s.136-.083.054-.27M10.39 30.627s-.087-.168-.205-.099c-.118.07-.18.093-.287.24l-.155.215c-.021.039-.134.257.099.271.4.025.138-.236.276-.334.112-.08.32-.06.323-.141a.266.266 0 00-.05-.152M5.57 25.457s-.313.077-.336.189c-.023.11.183.22.217.225.034.006.105.088.313-.054.208-.14.2-.261.2-.261s.122-.143-.394-.099M8.091 25.676s-.004-.115-.228-.102c-.225.013-.274.055-.28.089-.006.035.011.092.214.107.204.017.287 0 .294-.094M10.408 25.6c-.17-.005-.116.009-.222.022-.191.024-.295.004-.484-.025-.264-.04-.674-.2-.674-.2s-.052-.026-.072.052c-.02.079.05.248.112.294.335.248.352.204.582.213.127.005.198-.026.324-.046.16-.026.236.033.41-.078.046-.028.09-.23.024-.233M12.556 25.518s-.08-.094-.249-.012a.722.722 0 00-.27.266s-.079.122.088.103c.166-.02.312-.093.353-.117.041-.024.163-.138.078-.24M10.564 8.875s.635-.641 1.087-1.487c.27-.505.386-1.682.155-1.388-.105.133-.23.744-.43 1.194-.286.644-.896 1.553-.896 1.553s-.13.304.084.128M8.257 10.773s-.073.07-.04.187c.033.116.173.028.173.028s.31-.15.64-.167c.328-.018.784.108.784.108l.253.094.174.1c.02.009.13.08.194.008.064-.074-.394-.605-.863-.686-.779-.135-1.29.292-1.29.292l-.025.036M5.986 12.648c.081.046.459-.449.773-.762.23-.23.65-.616.65-.616s.189-.176-.132-.077c-.13.04-.488.228-.74.575-.213.294-.631.833-.55.88M4.495 10.419s-.068.183.207.413c.275.231.347.422.523.284.048-.037-.171-.35-.285-.435-.113-.085-.195-.157-.195-.157l-.071-.046-.093-.04-.052-.016-.034-.003M3.445 9.106s-.35.077-.435.278c-.087.2.401.078.401.078s.324.022.332-.125c.008-.148-.042-.165-.298-.231M.471 14.145c-.208-.053-.246.294-.272.405-.026.11.093.336.142.334.049-.002.216-.221.226-.328.01-.107.093-.363-.096-.411M3.45 18.802s-.377-.283-.435-.171c-.057.112.312.61.312.61s.112.163.286.088c.173-.075.11-.255.11-.255s-.117-.233-.273-.272M2.46 14.14s-.098-.013-.134.052c-.035.065-.031.172-.057.3-.021.1.047.367.047.367s.037.211.112.339c.082.138.3.334.3.334s.083.101.183.096c.1-.006.077-.072.077-.072s-.317-.704-.329-.776c-.036-.233-.034-.52-.034-.52l-.003-.042s-.004-.074-.162-.077M2.829 11.908s-.175-.033-.337.282c-.16.314-.128.443-.114.457.015.014.143.01.347-.281.205-.292.16-.4.16-.4l-.056-.058M5.2 14.011s.122.16-.112.123c-.234-.037-.726-.379-.925-.471-.2-.092-.523-.123-.387-.23.025-.018.03-.036.071-.038a.818.818 0 01.182.05l.367.134c.013.004.207.077.346.15.138.072.362.21.362.21l.096.072M10.438 19.309c.066.206-.775-.434-1.226-.772-1.195-.896-2.659-2.733-2.476-2.895.151-.134.752.708 1.63 1.633.94.99 2.032 1.912 2.072 2.034M13.08 18.141c-.384.35-.522.798-.3 1.131.218.325.286-.474.527-.711.207-.203.333-.173.677-.379.584-.35-.416-.485-.905-.04M12.083 13.397c-.17-.024-.166.203-.14.365.114.723.487 1.279.985 1.804.303.319 1.135.888 1.233.796.035-.033-.793-.586-1.318-1.3-.373-.506-.573-.934-.62-1.352-.005-.052.01-.292-.14-.313M9.127 3.331c-.334.181-.913.339-.913.339s-.028.057.047.05c.496-.039.685-.102.95-.216.265-.115.458-.43.458-.43s.106-.195-.094-.034c-.06.05-.265.192-.448.291M13.07 1.61s-.182-.048-.305.043c-.123.093-.086.166-.086.166s.188.176.324.201c.135.026.427.176.415.059-.013-.118-.176-.333-.231-.392l-.117-.076M11.93 4.451c.022.058.417-.076.568-.18.12-.084.165-.36.165-.36s.033-.27-.018-.166c-.225.456-.737.649-.715.706M11.899 3.79c.185-.253-.508.262-.86.396-.215.081-.565.188-.565.188s-.093.083.036.076c.13-.008.46.073.724-.075.063-.035.342-.323.342-.323s.235-.142.323-.262M11.186 5.161c.015.08.929.052 1.157-.026.18-.06.276-.432.276-.432s.111-.326.017-.215c-.412.492-1.466.593-1.45.673M2.965 10.422s-.088-.04-.195.17c-.108.21-.59 1.156-.505 1.297.102.165.52-.848.648-1.037.127-.19.076-.384.076-.384l-.024-.046M12.707 22.855c-.09.26.02.793.165.899.366.264.145-.413.193-.65.045-.222.092-.298.274-.536.324-.425-.44-.268-.632.287M10.489 2.977s-.277.004-.494.084c-.217.08-.275.19-.275.19s-.042.082-.012.127c.064.097.362-.05.572-.001.17.04.25.072.38.175.113.091.314.22.438.147.125-.073.08-.256.08-.256s-.148-.3-.341-.386c-.193-.086-.348-.08-.348-.08M7.728 3.92s-.17.029-.13.235c.04.206.151.173.151.173s.354-.15.332-.364c-.022-.214-.353-.044-.353-.044" fill="#1A1919"/><path d="M7.854 3.722s-.134.004-.228.157-.149.31-.149.31-.045.201.034.264.164-.13.276-.205c.07-.044.111-.066.18-.11.096-.06.253.017.241-.162-.012-.178-.22-.263-.354-.254M11.496 2.302s-.323-.06-.31.102c.01.15.175.06.28.12.104.06.17.085.253.184.06.07.053.21.127.21.103.003.082-.052.082-.052s-.093-.364-.214-.468c-.12-.104-.218-.096-.218-.096M13.51 3.08c-.051.229-.081.31-.081.31s-.097.465.288.293c.385-.173.187-.099.462-.264.275-.164.267-.075.47-.063.067.005.111.01.213-.018.086-.022.05-.149-.144-.212-.208-.067-.465-.051-.764-.054-.174-.002-.394-.219-.445.009M13.814 2.355s-.182-.05-.305.043c-.124.092-.085.165-.085.165s.188.176.323.202c.135.025.427.176.415.058-.013-.118-.175-.333-.23-.392l-.118-.076M14.56 3.857s-.182-.046-.306.042c-.123.087-.087.157-.087.157s.188.166.325.19c.135.023.426.164.414.053-.012-.112-.174-.316-.23-.37a.28.28 0 00-.116-.072" fill="#1A1919"/><path d="M14.559 3.822s-.182-.053-.305.047c-.124.1-.087.18-.087.18s.189.19.324.218c.136.029.427.19.415.063-.012-.127-.175-.362-.23-.426a.287.287 0 00-.117-.082M14.558 4.53s-.181-.059-.305.054c-.123.113-.086.203-.086.203s.189.215.325.247c.135.031.427.216.414.07-.013-.143-.175-.407-.23-.48-.056-.072-.118-.093-.118-.093M14.559 6.019s-.183-.059-.306.053c-.123.113-.086.203-.086.203s.189.216.324.247c.136.031.427.216.415.071-.012-.143-.175-.408-.23-.48-.056-.073-.117-.094-.117-.094M14.559 6.763s-.182-.059-.305.053c-.123.113-.087.203-.087.203s.19.216.325.248c.135.03.427.215.414.07-.012-.143-.175-.408-.23-.48a.281.281 0 00-.117-.094" fill="#1A1919"/><path d="M14.559 5.972s-.183-.07-.305.061c-.124.13-.087.235-.087.235s.189.248.324.284c.136.037.427.25.415.083-.012-.167-.175-.471-.23-.555-.056-.084-.117-.108-.117-.108M14.559 7.561s-.182-.049-.306.044c-.123.093-.086.167-.086.167s.19.178.325.204c.135.025.426.177.414.059-.012-.12-.175-.337-.231-.396l-.116-.078M13.814 8.349s-.18-.041-.304.036c-.123.077-.087.138-.087.138s.189.147.324.17c.135.02.427.147.415.048-.012-.098-.175-.28-.231-.328l-.117-.064" fill="#1A1919"/><path d="M13.811 8.37s-.163-.037-.274.032c-.11.07-.078.125-.078.125s.17.133.293.152c.122.02.384.133.373.044-.01-.089-.158-.251-.208-.296l-.106-.058M13.812 9.114s-.164-.037-.275.032c-.11.07-.078.125-.078.125s.17.133.293.152c.122.02.384.133.373.044-.011-.088-.158-.251-.207-.295l-.106-.058M13.808 9.894s-.133-.03-.222.026c-.09.056-.063.1-.063.1s.137.109.235.124c.1.016.312.107.303.036-.01-.072-.128-.204-.168-.24l-.085-.046M13.062 10.66s-.115-.026-.192.022c-.078.048-.054.087-.054.087s.118.092.202.106c.086.013.27.092.26.03l-.143-.206-.073-.04" fill="#1A1919"/><path d="M13.061 10.66s-.114-.027-.191.022c-.077.048-.054.087-.054.087s.118.092.203.106c.085.013.268.093.26.03l-.145-.205-.073-.04M.236 12.94s-.193.272-.098.421c.095.15.355-.238.355-.238s.269-.385.158-.457c-.11-.071-.174.129-.415.275" fill="#1A1919"/></g></svg>